HIERARCHY
ROOT Hips
{
  OFFSET 5.80788e-005 67.184 3.4734
  CHANNELS 6 Xposition Yposition Zposition Zrotation Xrotation Yrotation
  JOINT Chest
  {
    OFFSET 0 8.7983 -4.7612
    CHANNELS 3 Zrotation Xrotation Yrotation
    JOINT Chest2
    {
      OFFSET 0 8.0291 0.4195
      CHANNELS 3 Zrotation Xrotation Yrotation
      JOINT Chest3
      {
        OFFSET 0 9.9351 -2.2114
        CHANNELS 3 Zrotation Xrotation Yrotation
        JOINT Neck
        {
          OFFSET 0 22.3885 -0.4656
          CHANNELS 3 Zrotation Xrotation Yrotation
          JOINT Head
          {
            OFFSET -0.0001 12.643 3.4389
            CHANNELS 3 Zrotation Xrotation Yrotation
            End Site
            {
              OFFSET 0.0001 17.6655 0.5274
            }
          }
        }
        JOINT LeftCollar
        {
          OFFSET 2.2603 21.606 7.4023
          CHANNELS 3 Zrotation Xrotation Yrotation
          JOINT LeftShoulder
          {
            OFFSET 13.5163 -1.1332 -5.0146
            CHANNELS 3 Zrotation Xrotation Yrotation
            JOINT LeftElbow
            {
              OFFSET -0.0995 -28.05 -0.2431
              CHANNELS 3 Zrotation Xrotation Yrotation
              JOINT LeftWrist
              {
                OFFSET 0.0679 -23.3996 -0.1402
                CHANNELS 3 Zrotation Xrotation Yrotation
                JOINT LeftFinger1
                {
                  OFFSET 0.7932 -9.069 2.5189
                  CHANNELS 3 Zrotation Xrotation Yrotation
                  JOINT LeftFinger11
                  {
                    OFFSET -0.8272 -3.3923 0.5977
                    CHANNELS 3 Zrotation Xrotation Yrotation
                    JOINT LeftFinger12
                    {
                      OFFSET -0.5649 -2.3158 0.4082
                      CHANNELS 3 Zrotation Xrotation Yrotation
                      End Site
                      {
                        OFFSET -0.4919 -1.6479 0.2673
                      }
                    }
                  }
                }
                JOINT LeftFinger2
                {
                  OFFSET 0.9159 -9.2044 0.2193
                  CHANNELS 3 Zrotation Xrotation Yrotation
                  JOINT LeftFinger21
                  {
                    OFFSET 0.0117 -4.1944 -0.0248
                    CHANNELS 3 Zrotation Xrotation Yrotation
                    JOINT LeftFinger22
                    {
                      OFFSET 0.0071 -2.3249 -0.0142
                      CHANNELS 3 Zrotation Xrotation Yrotation
                      End Site
                      {
                        OFFSET -0.1475 -2.0882 0.0028
                      }
                    }
                  }
                }
                JOINT LeftFinger3
                {
                  OFFSET 0.6113 -8.7231 -2.0637
                  CHANNELS 3 Zrotation Xrotation Yrotation
                  JOINT LeftFinger31
                  {
                    OFFSET -0.1927 -3.8059 -0.2383
                    CHANNELS 3 Zrotation Xrotation Yrotation
                    JOINT LeftFinger32
                    {
                      OFFSET -0.1091 -2.1688 -0.1362
                      CHANNELS 3 Zrotation Xrotation Yrotation
                      End Site
                      {
                        OFFSET -0.2358 -1.9176 -0.0906
                      }
                    }
                  }
                }
                JOINT LeftFinger4
                {
                  OFFSET -0.6151 -8.0947 -3.5641
                  CHANNELS 3 Zrotation Xrotation Yrotation
                  JOINT LeftFinger41
                  {
                    OFFSET -0.4882 -2.341 -0.6462
                    CHANNELS 3 Zrotation Xrotation Yrotation
                    JOINT LeftFinger42
                    {
                      OFFSET -0.3575 -1.7167 -0.4742
                      CHANNELS 3 Zrotation Xrotation Yrotation
                      End Site
                      {
                        OFFSET -0.4187 -1.5237 -0.3496
                      }
                    }
                  }
                }
                JOINT LeftFinger0
                {
                  OFFSET -1.42 -1.8761 1.4223
                  CHANNELS 3 Zrotation Xrotation Yrotation
                  JOINT LeftFinger01
                  {
                    OFFSET -1.1471 -3.4929 2.6334
                    CHANNELS 3 Zrotation Xrotation Yrotation
                    JOINT LeftFinger02
                    {
                      OFFSET -0.823 -2.3 1.6571
                      CHANNELS 3 Zrotation Xrotation Yrotation
                      End Site
                      {
                        OFFSET -0.5822 -1.6914 1.1582
                      }
                    }
                  }
                }
              }
            }
          }
        }
        JOINT RightCollar
        {
          OFFSET -2.2603 21.606 7.4023
          CHANNELS 3 Zrotation Xrotation Yrotation
          JOINT RightShoulder
          {
            OFFSET -13.5187 -1.1334 -5.0155
            CHANNELS 3 Zrotation Xrotation Yrotation
            JOINT RightElbow
            {
              OFFSET 0.0994 -28.0499 -0.2431
              CHANNELS 3 Zrotation Xrotation Yrotation
              JOINT RightWrist
              {
                OFFSET -0.0679 -23.3996 -0.1402
                CHANNELS 3 Zrotation Xrotation Yrotation
                JOINT RightFinger1
                {
                  OFFSET -0.7932 -9.0691 2.5189
                  CHANNELS 3 Zrotation Xrotation Yrotation
                  JOINT RightFinger11
                  {
                    OFFSET 0.8272 -3.3923 0.5977
                    CHANNELS 3 Zrotation Xrotation Yrotation
                    JOINT RightFinger12
                    {
                      OFFSET 0.565 -2.3158 0.4082
                      CHANNELS 3 Zrotation Xrotation Yrotation
                      End Site
                      {
                        OFFSET 0.4919 -1.6479 0.2673
                      }
                    }
                  }
                }
                JOINT RightFinger2
                {
                  OFFSET -0.916 -9.2044 0.2193
                  CHANNELS 3 Zrotation Xrotation Yrotation
                  JOINT RightFinger21
                  {
                    OFFSET -0.0117 -4.1944 -0.0248
                    CHANNELS 3 Zrotation Xrotation Yrotation
                    JOINT RightFinger22
                    {
                      OFFSET -0.0071 -2.3249 -0.0142
                      CHANNELS 3 Zrotation Xrotation Yrotation
                      End Site
                      {
                        OFFSET 0.1475 -2.0882 0.0028
                      }
                    }
                  }
                }
                JOINT RightFinger3
                {
                  OFFSET -0.6113 -8.7231 -2.0637
                  CHANNELS 3 Zrotation Xrotation Yrotation
                  JOINT RightFinger31
                  {
                    OFFSET 0.1927 -3.8059 -0.2383
                    CHANNELS 3 Zrotation Xrotation Yrotation
                    JOINT RightFinger32
                    {
                      OFFSET 0.1091 -2.1688 -0.1362
                      CHANNELS 3 Zrotation Xrotation Yrotation
                      End Site
                      {
                        OFFSET 0.2358 -1.9176 -0.0906
                      }
                    }
                  }
                }
                JOINT RightFinger4
                {
                  OFFSET 0.6151 -8.0947 -3.564
                  CHANNELS 3 Zrotation Xrotation Yrotation
                  JOINT RightFinger41
                  {
                    OFFSET 0.4882 -2.341 -0.6462
                    CHANNELS 3 Zrotation Xrotation Yrotation
                    JOINT RightFinger42
                    {
                      OFFSET 0.3574 -1.7166 -0.4742
                      CHANNELS 3 Zrotation Xrotation Yrotation
                      End Site
                      {
                        OFFSET 0.4187 -1.5237 -0.3496
                      }
                    }
                  }
                }
                JOINT RightFinger0
                {
                  OFFSET 1.4199 -1.8761 1.4221
                  CHANNELS 3 Zrotation Xrotation Yrotation
                  JOINT RightFinger01
                  {
                    OFFSET 1.1472 -3.4929 2.6336
                    CHANNELS 3 Zrotation Xrotation Yrotation
                    JOINT RightFinger02
                    {
                      OFFSET 0.8229 -2.3 1.6571
                      CHANNELS 3 Zrotation Xrotation Yrotation
                      End Site
                      {
                        OFFSET 0.5822 -1.6914 1.1582
                      }
                    }
                  }
                }
              }
            }
          }
        }
      }
    }
  }
  JOINT RightHip
  {
    OFFSET -9.412 3.9771 -0.7758
    CHANNELS 3 Zrotation Xrotation Yrotation
    JOINT RightKnee
    {
      OFFSET -0.7531 -40.938 0
      CHANNELS 3 Zrotation Xrotation Yrotation
      JOINT RightAnkle
      {
        OFFSET 0 -40.1986 0
        CHANNELS 3 Zrotation Xrotation Yrotation
        JOINT RightToe
        {
          OFFSET 0 -4.4182 9.239
          CHANNELS 3 Zrotation Xrotation Yrotation
          End Site
          {
            OFFSET 0 0 6.1981
          }
        }
      }
    }
  }
  JOINT LeftHip
  {
    OFFSET 9.4119 3.9773 -0.7758
    CHANNELS 3 Zrotation Xrotation Yrotation
    JOINT LeftKnee
    {
      OFFSET 0.7532 -40.9383 0
      CHANNELS 3 Zrotation Xrotation Yrotation
      JOINT LeftAnkle
      {
        OFFSET 0 -40.1986 0
        CHANNELS 3 Zrotation Xrotation Yrotation
        JOINT LeftToe
        {
          OFFSET 0 -4.4182 9.239
          CHANNELS 3 Zrotation Xrotation Yrotation
          End Site
          {
            OFFSET 0 0 6.1981
          }
        }
      }
    }
  }
}
MOTION
Frames:	4
Frame Time:	0.0333333
5.80788e-005 67.184 3.4734 0 0 -0 0 0 -0 0 0 -0 0 0 -0 0 0 -0 0 0 -0 0 0 -12.5014 88.1196 14.2451 10.6914 -0.00160068 -0.00239207 0.000740045 -8.4365e-005 7.00714e-005 -9.52055e-007 9.93923e-017 -1.98785e-016 -1.59028e-015 9.93923e-017 -5.96354e-016 -1.59028e-015 -9.93923e-017 -5.96354e-016 -1.59028e-015 9.93923e-017 -1.98785e-016 -1.59028e-015 -0.0128176 0.00232552 8.52707e-005 9.93923e-017 5.96354e-016 -0 9.93923e-017 -1.98785e-016 -1.59028e-015 -0.0160551 0.00299681 0.000857156 -2.48481e-016 0 3.18055e-015 9.93923e-017 -1.98785e-016 -1.59028e-015 -0.0125865 0.0031206 0.00282719 0 1.98785e-016 -0 9.93923e-017 -1.98785e-016 -1.59028e-015 9.93923e-017 -5.96354e-016 -1.59028e-015 -9.93923e-017 -5.96354e-016 -1.59028e-015 -0.865644 0.16582 7.03859 -88.0329 10.2057 -10.5567 0.0015593 -0.00248883 -0.000788628 7.87605e-005 4.10553e-005 1.24965e-005 -3.97569e-016 -7.95139e-016 3.18055e-015 -1.98785e-016 -3.97569e-016 3.18055e-015 -1.98785e-016 0 3.18055e-015 -3.97569e-016 -7.95139e-016 3.18055e-015 0.0129473 0.00231697 -8.70038e-005 9.93923e-017 -7.95139e-016 1.59028e-015 -3.97569e-016 -7.95139e-016 3.18055e-015 0.0163314 0.00303369 -0.000872333 3.97569e-016 7.95139e-016 -3.18055e-015 -3.97569e-016 -7.95139e-016 3.18055e-015 0.0145763 0.00367772 -0.00326275 9.93923e-017 -3.97569e-016 -0 -3.97569e-016 -7.95139e-016 3.18055e-015 -1.98785e-016 -3.97569e-016 3.18055e-015 -1.98785e-016 0 3.18055e-015 3.42485 1.36937 -0.0640303 0.000136572 0.69354 0.00145564 -3.42573 -2.06297 -0.0607933 -3.19502e-024 0 -1.48106e-024 -3.42498 1.36123 0.0639712 -6.769e-005 0.712612 -0.0012277 3.42582 -2.07388 0.0612819 2.55305e-023 0 -2.31416e-026 
-0.00203462 28.8583 8.69051 -5.92007e-009 -62.9733 -8.74923e-016 -0.167673 3.7265 -0.215197 -0.322312 7.45358 -0.420778 -0.322312 7.45361 -0.420779 0.567383 0.434984 -0.0677728 4.22846e-007 12.6203 -1.93486e-007 1.21496 -8.20629 -19.3171 36.3339 18.8801 2.72001 -3.34319 0.184475 11.9099 -6.27978 -16.67 7.83818 3.18055e-015 -3.18055e-015 1.59028e-015 6.36111e-015 -3.18055e-015 -0 6.36111e-015 -3.18055e-015 1.59028e-015 3.18055e-015 -3.18055e-015 1.59028e-015 -0.0128452 0.00234514 8.40964e-005 -0 0 1.59028e-015 3.18055e-015 -3.18055e-015 1.59028e-015 -0.0160383 0.00299566 0.00085569 -9.54166e-015 -3.18055e-015 -1.59028e-015 3.18055e-015 -3.18055e-015 1.59028e-015 -0.012641 0.00313918 0.00283672 1.59028e-014 0 -0 3.18055e-015 -3.18055e-015 1.59028e-015 6.36111e-015 -3.18055e-015 -0 6.36111e-015 -3.18055e-015 1.59028e-015 9.97293 -5.81069 20.8919 -52.287 -0.723347 -1.71252 15.6935 -8.92982 -22.2889 14.7963 8.39786 11.9515 1.59028e-015 -6.36111e-015 -5.06901e-015 -3.97569e-016 -3.18055e-015 -2.38542e-015 1.39149e-015 -3.18055e-015 1.09332e-015 1.59028e-015 -6.36111e-015 -5.06901e-015 0.0129227 0.00232476 -8.97648e-005 -1.39149e-015 3.18055e-015 9.93923e-017 1.59028e-015 -6.36111e-015 -5.06901e-015 0.01636 0.00304827 -0.000877413 1.98785e-016 3.18055e-015 -4.96962e-016 1.59028e-015 -6.36111e-015 -5.06901e-015 0.0146557 0.00370095 -0.00328041 9.93923e-016 6.36111e-015 1.09332e-015 1.59028e-015 -6.36111e-015 -5.06901e-015 -3.97569e-016 -3.18055e-015 -2.38542e-015 1.39149e-015 -3.18055e-015 1.09332e-015 -3.29338 -15.0864 -5.28255 -3.21908 71.0673 3.46162 -5.40666 0.351844 -1.16436 2.98177e-016 -1.59028e-015 7.95139e-016 3.31762 -20.8388 5.91215 10.1524 80.2992 -10.5749 5.54279 -0.464136 1.38408 -7.95139e-016 -7.95139e-016 1.59028e-015 
-0.00390382 2.3521 6.69359 180 -71.9435 180 -0.257323 6.38119 -0.392022 -0.474851 12.764 -0.762158 -0.474852 12.764 -0.762161 0.974188 0.688144 -0.115325 -6.05302e-009 21.5854 8.78163e-008 0.826919 -13.8302 -24.4247 -0.209725 18.2719 -7.26675 -5.68689 0.274549 20.4567 -10.9033 -28.5282 12.6815 -3.18055e-015 1.59028e-015 -5.96354e-016 -4.77083e-015 0 1.98785e-016 -4.77083e-015 -7.95139e-016 5.96354e-016 -3.18055e-015 1.59028e-015 -5.96354e-016 -0.0128082 0.00233883 8.4045e-005 1.21445e-006 -1.02559e-005 -4.56209e-006 -3.18055e-015 1.59028e-015 -5.96354e-016 -0.016024 0.00299668 0.000845763 -1.59028e-015 1.59028e-015 -3.57812e-015 -3.18055e-015 1.59028e-015 -5.96354e-016 -0.0126191 0.00314893 0.00283423 -2.7548e-006 -6.21754e-006 6.16114e-006 -3.18055e-015 1.59028e-015 -5.96354e-016 -4.77083e-015 0 1.98785e-016 -4.77083e-015 -7.95139e-016 5.96354e-016 19.4596 -9.4589 31.0157 -27.5295 -10.027 5.33622 26.8984 -15.5295 -38.2053 25.4628 14.3092 20.2373 -3.18055e-015 -6.36111e-015 -0 -2.06531e-006 -3.13139e-006 -1.90581e-006 -8.29912e-006 -2.9041e-006 -7.30148e-007 -3.18055e-015 -6.36111e-015 -0 0.0129459 0.00231872 -9.36829e-005 4.18202e-008 9.89749e-008 1.55278e-006 -3.18055e-015 -6.36111e-015 -0 0.0163471 0.00303016 -0.000861751 -6.4038e-006 6.75199e-006 -5.03566e-006 -3.18055e-015 -6.36111e-015 -0 0.0145815 0.00368042 -0.00326598 -2.06419e-006 -1.73158e-006 -1.90617e-006 -3.18055e-015 -6.36111e-015 -0 -2.06531e-006 -3.13139e-006 -1.90581e-006 -8.29912e-006 -2.9041e-006 -7.30148e-007 -9.33956 -25.0398 -10.964 -172.983 59.9041 171.231 -6.72601 2.0816 -2.64556 -0 -1.59028e-015 -0 10.3022 -34.0437 13.9496 173.693 43.7576 -170.72 7.06824 -0.0387761 3.61801 1.06036e-007 8.41485e-007 -1.1892e-008 
-0.00430338 1.12937 6.50031 180 -69.9522 180 -0.261395 6.45926 -0.399447 -0.481768 12.9202 -0.776495 -0.481769 12.9203 -0.776497 0.9921 0.503369 -0.114162 -1.6526e-007 21.7463 4.7318e-007 0.676591 -13.8851 -24.6404 -1.79022 18.2199 -7.82365 -5.78959 0.27771 20.8345 -9.91942 -28.9382 13.0116 -0 -2.38542e-015 -0 -1.31186e-006 -7.11413e-007 3.16054e-006 4.18849e-006 1.18259e-005 -7.12546e-007 -0 -2.38542e-015 -0 -0.0128019 0.00232326 9.13412e-005 3.60019e-006 -3.78948e-008 1.72096e-006 -0 -2.38542e-015 -0 -0.0160782 0.0030114 0.00085908 -3.19571e-006 -1.08019e-005 1.44978e-006 -0 -2.38542e-015 -0 -0.0125914 0.00312892 0.00283739 1.59028e-015 -1.59028e-015 7.95139e-016 -0 -2.38542e-015 -0 -1.31186e-006 -7.11413e-007 3.16054e-006 4.18849e-006 1.18259e-005 -7.12546e-007 19.9119 -9.41363 31.4005 -26.4773 -10.6388 5.65881 27.3906 -15.8265 -38.9079 26.1586 14.4045 20.6929 3.98439e-006 -8.12927e-006 4.33379e-006 3.18055e-015 4.77083e-015 3.18055e-015 -3.18055e-015 4.77083e-015 6.36111e-015 3.98439e-006 -8.12927e-006 4.33379e-006 0.0129734 0.00232976 -9.06628e-005 6.36111e-015 -1.59028e-015 3.18055e-015 3.98439e-006 -8.12927e-006 4.33379e-006 0.0163486 0.00303638 -0.000872657 9.54166e-015 3.18055e-015 -6.36111e-015 3.98439e-006 -8.12927e-006 4.33379e-006 0.0145803 0.0036939 -0.00326351 -9.54166e-015 3.18055e-015 3.18055e-015 3.98439e-006 -8.12927e-006 4.33379e-006 3.18055e-015 4.77083e-015 3.18055e-015 -3.18055e-015 4.77083e-015 6.36111e-015 -9.82598 -25.4029 -11.5052 -173.265 57.7438 171.339 -6.96662 2.09043 -2.64718 -7.9766e-007 2.4634e-006 -7.00974e-007 10.979 -34.4461 14.8462 173.892 41.295 -170.576 7.41227 -0.166557 3.70693 2.04653e-007 1.2548e-006 8.26414e-007 
